<mxfile host="app.diagrams.net" modified="2023-03-27T18:16:28.943Z" agent="Mozilla/5.0 (Windows NT 10.0; Win64; x64) AppleWebKit/537.36 (KHTML, like Gecko) Chrome/111.0.0.0 Safari/537.36" etag="6V-wv6tj8TPK5Dpep68O" version="21.1.1" type="device">
  <diagram name="Page-1" id="X5ZSmHyJplXjC6VCMeC5">
    <mxGraphModel dx="1615" dy="845" grid="0" gridSize="10" guides="1" tooltips="1" connect="1" arrows="1" fold="1" page="1" pageScale="1" pageWidth="827" pageHeight="1169" math="0" shadow="0">
      <root>
        <mxCell id="0" />
        <mxCell id="1" parent="0" />
        <mxCell id="o3U4WGUKVo9Jb-Oqj6_o-1" value="" style="swimlane;startSize=0;" parent="1" vertex="1">
          <mxGeometry x="130" y="50" width="580" height="720" as="geometry" />
        </mxCell>
        <mxCell id="o3U4WGUKVo9Jb-Oqj6_o-8" value="&lt;font style=&quot;font-size: 10px;&quot;&gt;Customer Registration&lt;/font&gt;" style="ellipse;whiteSpace=wrap;html=1;" parent="o3U4WGUKVo9Jb-Oqj6_o-1" vertex="1">
          <mxGeometry x="72.5" y="20" width="94" height="30" as="geometry" />
        </mxCell>
        <mxCell id="o3U4WGUKVo9Jb-Oqj6_o-11" value="&lt;font style=&quot;font-size: 10px;&quot;&gt;Vendor Registration&lt;/font&gt;" style="ellipse;whiteSpace=wrap;html=1;" parent="o3U4WGUKVo9Jb-Oqj6_o-1" vertex="1">
          <mxGeometry x="270" y="20" width="94" height="30" as="geometry" />
        </mxCell>
        <mxCell id="o3U4WGUKVo9Jb-Oqj6_o-13" value="&lt;font style=&quot;font-size: 10px;&quot;&gt;Searching the products&lt;/font&gt;" style="ellipse;whiteSpace=wrap;html=1;" parent="o3U4WGUKVo9Jb-Oqj6_o-1" vertex="1">
          <mxGeometry x="166.5" y="80" width="93.5" height="30" as="geometry" />
        </mxCell>
        <mxCell id="o3U4WGUKVo9Jb-Oqj6_o-21" value="&lt;font style=&quot;font-size: 10px;&quot;&gt;Viewi the products&lt;/font&gt;" style="ellipse;whiteSpace=wrap;html=1;" parent="o3U4WGUKVo9Jb-Oqj6_o-1" vertex="1">
          <mxGeometry x="166.5" y="130" width="93.5" height="30" as="geometry" />
        </mxCell>
        <mxCell id="o3U4WGUKVo9Jb-Oqj6_o-22" value="&lt;font style=&quot;font-size: 10px;&quot;&gt;Manage cart&lt;/font&gt;" style="ellipse;whiteSpace=wrap;html=1;" parent="o3U4WGUKVo9Jb-Oqj6_o-1" vertex="1">
          <mxGeometry x="166.5" y="180" width="93.5" height="30" as="geometry" />
        </mxCell>
        <mxCell id="o3U4WGUKVo9Jb-Oqj6_o-23" value="&lt;font style=&quot;font-size: 10px;&quot;&gt;Chackout&lt;/font&gt;" style="ellipse;whiteSpace=wrap;html=1;" parent="o3U4WGUKVo9Jb-Oqj6_o-1" vertex="1">
          <mxGeometry x="166.5" y="230" width="93.5" height="30" as="geometry" />
        </mxCell>
        <mxCell id="o3U4WGUKVo9Jb-Oqj6_o-24" value="&lt;font style=&quot;font-size: 10px;&quot;&gt;Track order status&lt;/font&gt;" style="ellipse;whiteSpace=wrap;html=1;" parent="o3U4WGUKVo9Jb-Oqj6_o-1" vertex="1">
          <mxGeometry x="220" y="600" width="93.5" height="30" as="geometry" />
        </mxCell>
        <mxCell id="o3U4WGUKVo9Jb-Oqj6_o-26" value="&lt;font style=&quot;font-size: 10px;&quot;&gt;Return and Exchange&lt;/font&gt;" style="ellipse;whiteSpace=wrap;html=1;" parent="o3U4WGUKVo9Jb-Oqj6_o-1" vertex="1">
          <mxGeometry x="226.5" y="490" width="93.5" height="30" as="geometry" />
        </mxCell>
        <mxCell id="o3U4WGUKVo9Jb-Oqj6_o-27" value="&lt;font style=&quot;font-size: 10px;&quot;&gt;Reviews and Ratings&lt;/font&gt;" style="ellipse;whiteSpace=wrap;html=1;" parent="o3U4WGUKVo9Jb-Oqj6_o-1" vertex="1">
          <mxGeometry x="72.5" y="310" width="93.5" height="30" as="geometry" />
        </mxCell>
        <mxCell id="o3U4WGUKVo9Jb-Oqj6_o-28" value="&lt;font style=&quot;font-size: 10px;&quot;&gt;Messages&lt;/font&gt;" style="ellipse;whiteSpace=wrap;html=1;" parent="o3U4WGUKVo9Jb-Oqj6_o-1" vertex="1">
          <mxGeometry x="236.5" y="340" width="93.5" height="30" as="geometry" />
        </mxCell>
        <mxCell id="o3U4WGUKVo9Jb-Oqj6_o-32" value="&lt;font style=&quot;font-size: 10px;&quot;&gt;Manage products&lt;/font&gt;" style="ellipse;whiteSpace=wrap;html=1;" parent="o3U4WGUKVo9Jb-Oqj6_o-1" vertex="1">
          <mxGeometry x="330" y="110" width="93.5" height="30" as="geometry" />
        </mxCell>
        <mxCell id="o3U4WGUKVo9Jb-Oqj6_o-33" value="&lt;font style=&quot;font-size: 10px;&quot;&gt;Track sales&lt;/font&gt;" style="ellipse;whiteSpace=wrap;html=1;" parent="o3U4WGUKVo9Jb-Oqj6_o-1" vertex="1">
          <mxGeometry x="460" y="20" width="93.5" height="30" as="geometry" />
        </mxCell>
        <mxCell id="o3U4WGUKVo9Jb-Oqj6_o-34" value="&lt;span style=&quot;font-size: 10px;&quot;&gt;Manage orders&lt;/span&gt;" style="ellipse;whiteSpace=wrap;html=1;" parent="o3U4WGUKVo9Jb-Oqj6_o-1" vertex="1">
          <mxGeometry x="400" y="230" width="86.5" height="30" as="geometry" />
        </mxCell>
        <mxCell id="o3U4WGUKVo9Jb-Oqj6_o-40" value="&lt;font style=&quot;font-size: 10px;&quot;&gt;Manage the website&lt;/font&gt;" style="ellipse;whiteSpace=wrap;html=1;" parent="o3U4WGUKVo9Jb-Oqj6_o-1" vertex="1">
          <mxGeometry x="406.5" y="345" width="93.5" height="30" as="geometry" />
        </mxCell>
        <mxCell id="o3U4WGUKVo9Jb-Oqj6_o-41" value="&lt;font style=&quot;font-size: 10px;&quot;&gt;Manage the vendors&lt;/font&gt;" style="ellipse;whiteSpace=wrap;html=1;" parent="o3U4WGUKVo9Jb-Oqj6_o-1" vertex="1">
          <mxGeometry x="406.5" y="410" width="93.5" height="30" as="geometry" />
        </mxCell>
        <mxCell id="o3U4WGUKVo9Jb-Oqj6_o-42" value="&lt;font style=&quot;font-size: 10px;&quot;&gt;Customer support&lt;/font&gt;" style="ellipse;whiteSpace=wrap;html=1;" parent="o3U4WGUKVo9Jb-Oqj6_o-1" vertex="1">
          <mxGeometry x="236.5" y="390" width="93.5" height="30" as="geometry" />
        </mxCell>
        <mxCell id="o3U4WGUKVo9Jb-Oqj6_o-45" value="" style="endArrow=none;html=1;rounded=0;entryX=0.5;entryY=0.5;entryDx=0;entryDy=0;entryPerimeter=0;" parent="o3U4WGUKVo9Jb-Oqj6_o-1" edge="1" target="o3U4WGUKVo9Jb-Oqj6_o-3">
          <mxGeometry width="50" height="50" relative="1" as="geometry">
            <mxPoint x="420" y="120" as="sourcePoint" />
            <mxPoint x="610" y="110" as="targetPoint" />
          </mxGeometry>
        </mxCell>
        <mxCell id="o3U4WGUKVo9Jb-Oqj6_o-51" value="" style="endArrow=none;dashed=1;html=1;rounded=0;exitX=0.5;exitY=0;exitDx=0;exitDy=0;" parent="o3U4WGUKVo9Jb-Oqj6_o-1" source="o3U4WGUKVo9Jb-Oqj6_o-21" edge="1">
          <mxGeometry width="50" height="50" relative="1" as="geometry">
            <mxPoint x="170" y="160" as="sourcePoint" />
            <mxPoint x="213" y="110" as="targetPoint" />
          </mxGeometry>
        </mxCell>
        <mxCell id="o3U4WGUKVo9Jb-Oqj6_o-53" value="" style="endArrow=none;dashed=1;html=1;rounded=0;exitX=0.5;exitY=0;exitDx=0;exitDy=0;entryX=0.5;entryY=1;entryDx=0;entryDy=0;" parent="o3U4WGUKVo9Jb-Oqj6_o-1" source="o3U4WGUKVo9Jb-Oqj6_o-22" target="o3U4WGUKVo9Jb-Oqj6_o-21" edge="1">
          <mxGeometry width="50" height="50" relative="1" as="geometry">
            <mxPoint x="250" y="380" as="sourcePoint" />
            <mxPoint x="300" y="330" as="targetPoint" />
          </mxGeometry>
        </mxCell>
        <mxCell id="o3U4WGUKVo9Jb-Oqj6_o-69" value="" style="endArrow=none;dashed=1;html=1;rounded=0;entryX=0.5;entryY=1;entryDx=0;entryDy=0;" parent="o3U4WGUKVo9Jb-Oqj6_o-1" target="o3U4WGUKVo9Jb-Oqj6_o-28" edge="1">
          <mxGeometry width="50" height="50" relative="1" as="geometry">
            <mxPoint x="283" y="400" as="sourcePoint" />
            <mxPoint x="233" y="230" as="targetPoint" />
          </mxGeometry>
        </mxCell>
        <mxCell id="o3U4WGUKVo9Jb-Oqj6_o-73" value="&lt;font style=&quot;font-size: 10px;&quot;&gt;include&lt;/font&gt;" style="text;html=1;align=center;verticalAlign=middle;resizable=0;points=[];autosize=1;strokeColor=none;fillColor=none;" parent="o3U4WGUKVo9Jb-Oqj6_o-1" vertex="1">
          <mxGeometry x="210" y="100" width="60" height="30" as="geometry" />
        </mxCell>
        <mxCell id="o3U4WGUKVo9Jb-Oqj6_o-74" value="&lt;font style=&quot;font-size: 10px;&quot;&gt;include&lt;/font&gt;" style="text;html=1;align=center;verticalAlign=middle;resizable=0;points=[];autosize=1;strokeColor=none;fillColor=none;" parent="o3U4WGUKVo9Jb-Oqj6_o-1" vertex="1">
          <mxGeometry x="210" y="150" width="60" height="30" as="geometry" />
        </mxCell>
        <mxCell id="o3U4WGUKVo9Jb-Oqj6_o-75" value="&lt;font style=&quot;font-size: 10px;&quot;&gt;include&lt;/font&gt;" style="text;html=1;align=center;verticalAlign=middle;resizable=0;points=[];autosize=1;strokeColor=none;fillColor=none;" parent="o3U4WGUKVo9Jb-Oqj6_o-1" vertex="1">
          <mxGeometry x="210" y="200" width="60" height="30" as="geometry" />
        </mxCell>
        <mxCell id="o3U4WGUKVo9Jb-Oqj6_o-78" value="&lt;font style=&quot;font-size: 10px;&quot;&gt;include&lt;/font&gt;" style="text;html=1;align=center;verticalAlign=middle;resizable=0;points=[];autosize=1;strokeColor=none;fillColor=none;" parent="o3U4WGUKVo9Jb-Oqj6_o-1" vertex="1">
          <mxGeometry x="210" y="360" width="60" height="30" as="geometry" />
        </mxCell>
        <mxCell id="zqqWSp069U1Nk2rd0JvT-1" value="&lt;font style=&quot;font-size: 10px;&quot;&gt;Set promotions&lt;/font&gt;" style="ellipse;whiteSpace=wrap;html=1;" vertex="1" parent="o3U4WGUKVo9Jb-Oqj6_o-1">
          <mxGeometry x="350" y="170" width="93.5" height="30" as="geometry" />
        </mxCell>
        <mxCell id="o3U4WGUKVo9Jb-Oqj6_o-2" value="Customer" style="shape=umlActor;verticalLabelPosition=bottom;verticalAlign=top;html=1;outlineConnect=0;" parent="1" vertex="1">
          <mxGeometry x="70" y="250" width="30" height="60" as="geometry" />
        </mxCell>
        <mxCell id="o3U4WGUKVo9Jb-Oqj6_o-3" value="Vendor" style="shape=umlActor;verticalLabelPosition=bottom;verticalAlign=top;html=1;outlineConnect=0;" parent="1" vertex="1">
          <mxGeometry x="730" y="130" width="30" height="60" as="geometry" />
        </mxCell>
        <mxCell id="o3U4WGUKVo9Jb-Oqj6_o-4" value="Administrator" style="shape=umlActor;verticalLabelPosition=bottom;verticalAlign=top;html=1;outlineConnect=0;" parent="1" vertex="1">
          <mxGeometry x="740" y="270" width="30" height="60" as="geometry" />
        </mxCell>
        <mxCell id="o3U4WGUKVo9Jb-Oqj6_o-10" value="" style="endArrow=none;html=1;rounded=0;entryX=0;entryY=0.5;entryDx=0;entryDy=0;exitX=0.75;exitY=0.1;exitDx=0;exitDy=0;exitPerimeter=0;" parent="1" source="o3U4WGUKVo9Jb-Oqj6_o-2" target="o3U4WGUKVo9Jb-Oqj6_o-8" edge="1">
          <mxGeometry width="50" height="50" relative="1" as="geometry">
            <mxPoint x="110" y="270" as="sourcePoint" />
            <mxPoint x="160" y="220" as="targetPoint" />
          </mxGeometry>
        </mxCell>
        <mxCell id="o3U4WGUKVo9Jb-Oqj6_o-12" value="" style="endArrow=none;html=1;rounded=0;entryX=0;entryY=0.5;entryDx=0;entryDy=0;exitX=1;exitY=0.5;exitDx=0;exitDy=0;" parent="1" source="o3U4WGUKVo9Jb-Oqj6_o-11" edge="1">
          <mxGeometry width="50" height="50" relative="1" as="geometry">
            <mxPoint x="601" y="295" as="sourcePoint" />
            <mxPoint x="731" y="150" as="targetPoint" />
          </mxGeometry>
        </mxCell>
        <mxCell id="o3U4WGUKVo9Jb-Oqj6_o-14" value="" style="endArrow=none;html=1;rounded=0;entryX=0;entryY=0.5;entryDx=0;entryDy=0;exitX=0.5;exitY=0.5;exitDx=0;exitDy=0;exitPerimeter=0;" parent="1" source="o3U4WGUKVo9Jb-Oqj6_o-2" target="o3U4WGUKVo9Jb-Oqj6_o-13" edge="1">
          <mxGeometry width="50" height="50" relative="1" as="geometry">
            <mxPoint x="120" y="280" as="sourcePoint" />
            <mxPoint x="250" y="155" as="targetPoint" />
          </mxGeometry>
        </mxCell>
        <mxCell id="o3U4WGUKVo9Jb-Oqj6_o-15" value="" style="endArrow=none;html=1;rounded=0;entryX=0;entryY=0.5;entryDx=0;entryDy=0;exitX=1;exitY=0.5;exitDx=0;exitDy=0;" parent="1" source="o3U4WGUKVo9Jb-Oqj6_o-13" edge="1">
          <mxGeometry width="50" height="50" relative="1" as="geometry">
            <mxPoint x="601" y="275" as="sourcePoint" />
            <mxPoint x="731" y="150" as="targetPoint" />
          </mxGeometry>
        </mxCell>
        <mxCell id="o3U4WGUKVo9Jb-Oqj6_o-19" value="Payment Gateway" style="shape=umlActor;verticalLabelPosition=bottom;verticalAlign=top;html=1;outlineConnect=0;" parent="1" vertex="1">
          <mxGeometry x="740" y="400" width="30" height="60" as="geometry" />
        </mxCell>
        <mxCell id="o3U4WGUKVo9Jb-Oqj6_o-20" value="Shipping carrier" style="shape=umlActor;verticalLabelPosition=bottom;verticalAlign=top;html=1;outlineConnect=0;" parent="1" vertex="1">
          <mxGeometry x="740" y="560" width="30" height="60" as="geometry" />
        </mxCell>
        <mxCell id="o3U4WGUKVo9Jb-Oqj6_o-44" value="" style="endArrow=none;html=1;rounded=0;entryX=0;entryY=0.5;entryDx=0;entryDy=0;" parent="1" target="o3U4WGUKVo9Jb-Oqj6_o-21" edge="1">
          <mxGeometry width="50" height="50" relative="1" as="geometry">
            <mxPoint x="90" y="270" as="sourcePoint" />
            <mxPoint x="307" y="145" as="targetPoint" />
          </mxGeometry>
        </mxCell>
        <mxCell id="o3U4WGUKVo9Jb-Oqj6_o-46" value="" style="endArrow=none;html=1;rounded=0;exitX=1;exitY=0.5;exitDx=0;exitDy=0;entryX=0;entryY=0.3333333333333333;entryDx=0;entryDy=0;entryPerimeter=0;" parent="1" source="o3U4WGUKVo9Jb-Oqj6_o-34" target="o3U4WGUKVo9Jb-Oqj6_o-3" edge="1">
          <mxGeometry width="50" height="50" relative="1" as="geometry">
            <mxPoint x="560" y="170" as="sourcePoint" />
            <mxPoint x="757.25" y="182.5" as="targetPoint" />
          </mxGeometry>
        </mxCell>
        <mxCell id="o3U4WGUKVo9Jb-Oqj6_o-54" value="" style="endArrow=none;dashed=1;html=1;rounded=0;exitX=0.5;exitY=0;exitDx=0;exitDy=0;" parent="1" source="o3U4WGUKVo9Jb-Oqj6_o-23" edge="1">
          <mxGeometry width="50" height="50" relative="1" as="geometry">
            <mxPoint x="353" y="230" as="sourcePoint" />
            <mxPoint x="343" y="250" as="targetPoint" />
          </mxGeometry>
        </mxCell>
        <mxCell id="o3U4WGUKVo9Jb-Oqj6_o-59" value="" style="endArrow=none;html=1;rounded=0;entryX=0;entryY=0.3333333333333333;entryDx=0;entryDy=0;entryPerimeter=0;exitX=1;exitY=0.5;exitDx=0;exitDy=0;" parent="1" source="o3U4WGUKVo9Jb-Oqj6_o-40" target="o3U4WGUKVo9Jb-Oqj6_o-4" edge="1">
          <mxGeometry width="50" height="50" relative="1" as="geometry">
            <mxPoint x="400" y="145" as="sourcePoint" />
            <mxPoint x="741" y="160" as="targetPoint" />
          </mxGeometry>
        </mxCell>
        <mxCell id="o3U4WGUKVo9Jb-Oqj6_o-61" value="" style="endArrow=none;html=1;rounded=0;entryX=0;entryY=0.3333333333333333;entryDx=0;entryDy=0;exitX=1;exitY=0.5;exitDx=0;exitDy=0;entryPerimeter=0;" parent="1" source="o3U4WGUKVo9Jb-Oqj6_o-24" target="o3U4WGUKVo9Jb-Oqj6_o-20" edge="1">
          <mxGeometry width="50" height="50" relative="1" as="geometry">
            <mxPoint x="410" y="155" as="sourcePoint" />
            <mxPoint x="751" y="170" as="targetPoint" />
          </mxGeometry>
        </mxCell>
        <mxCell id="o3U4WGUKVo9Jb-Oqj6_o-62" value="" style="endArrow=none;html=1;rounded=0;entryX=0;entryY=0.3333333333333333;entryDx=0;entryDy=0;entryPerimeter=0;exitX=1;exitY=0.5;exitDx=0;exitDy=0;" parent="1" source="o3U4WGUKVo9Jb-Oqj6_o-23" target="o3U4WGUKVo9Jb-Oqj6_o-19" edge="1">
          <mxGeometry width="50" height="50" relative="1" as="geometry">
            <mxPoint x="640" y="410" as="sourcePoint" />
            <mxPoint x="750" y="300" as="targetPoint" />
          </mxGeometry>
        </mxCell>
        <mxCell id="o3U4WGUKVo9Jb-Oqj6_o-64" value="" style="endArrow=none;html=1;rounded=0;exitX=1;exitY=0.5;exitDx=0;exitDy=0;entryX=0.5;entryY=0.5;entryDx=0;entryDy=0;entryPerimeter=0;" parent="1" source="o3U4WGUKVo9Jb-Oqj6_o-41" target="o3U4WGUKVo9Jb-Oqj6_o-4" edge="1">
          <mxGeometry width="50" height="50" relative="1" as="geometry">
            <mxPoint x="640" y="410" as="sourcePoint" />
            <mxPoint x="750" y="300" as="targetPoint" />
          </mxGeometry>
        </mxCell>
        <mxCell id="o3U4WGUKVo9Jb-Oqj6_o-65" value="" style="endArrow=none;html=1;rounded=0;exitX=1;exitY=0;exitDx=0;exitDy=0;entryX=0.5;entryY=0.5;entryDx=0;entryDy=0;entryPerimeter=0;" parent="1" source="o3U4WGUKVo9Jb-Oqj6_o-42" target="o3U4WGUKVo9Jb-Oqj6_o-4" edge="1">
          <mxGeometry width="50" height="50" relative="1" as="geometry">
            <mxPoint x="650" y="420" as="sourcePoint" />
            <mxPoint x="750" y="300" as="targetPoint" />
          </mxGeometry>
        </mxCell>
        <mxCell id="o3U4WGUKVo9Jb-Oqj6_o-66" value="" style="endArrow=none;html=1;rounded=0;entryX=0;entryY=0.5;entryDx=0;entryDy=0;exitX=0.5;exitY=0.5;exitDx=0;exitDy=0;exitPerimeter=0;" parent="1" source="o3U4WGUKVo9Jb-Oqj6_o-2" target="o3U4WGUKVo9Jb-Oqj6_o-27" edge="1">
          <mxGeometry width="50" height="50" relative="1" as="geometry">
            <mxPoint x="110" y="320" as="sourcePoint" />
            <mxPoint x="307" y="195" as="targetPoint" />
          </mxGeometry>
        </mxCell>
        <mxCell id="o3U4WGUKVo9Jb-Oqj6_o-67" value="" style="endArrow=none;html=1;rounded=0;entryX=0;entryY=0;entryDx=0;entryDy=0;exitX=0.5;exitY=0.5;exitDx=0;exitDy=0;exitPerimeter=0;" parent="1" target="o3U4WGUKVo9Jb-Oqj6_o-28" edge="1">
          <mxGeometry width="50" height="50" relative="1" as="geometry">
            <mxPoint x="95" y="290" as="sourcePoint" />
            <mxPoint x="213" y="375" as="targetPoint" />
          </mxGeometry>
        </mxCell>
        <mxCell id="o3U4WGUKVo9Jb-Oqj6_o-70" value="" style="endArrow=none;html=1;rounded=0;entryX=0;entryY=0.3333333333333333;entryDx=0;entryDy=0;entryPerimeter=0;exitX=0.5;exitY=1;exitDx=0;exitDy=0;" parent="1" source="o3U4WGUKVo9Jb-Oqj6_o-33" target="o3U4WGUKVo9Jb-Oqj6_o-3" edge="1">
          <mxGeometry width="50" height="50" relative="1" as="geometry">
            <mxPoint x="400" y="305" as="sourcePoint" />
            <mxPoint x="750" y="430" as="targetPoint" />
          </mxGeometry>
        </mxCell>
        <mxCell id="o3U4WGUKVo9Jb-Oqj6_o-71" value="" style="endArrow=none;html=1;rounded=0;entryX=0;entryY=0.5;entryDx=0;entryDy=0;exitX=0.5;exitY=0.5;exitDx=0;exitDy=0;exitPerimeter=0;" parent="1" target="o3U4WGUKVo9Jb-Oqj6_o-26" edge="1">
          <mxGeometry width="50" height="50" relative="1" as="geometry">
            <mxPoint x="95" y="290" as="sourcePoint" />
            <mxPoint x="213" y="385" as="targetPoint" />
          </mxGeometry>
        </mxCell>
        <mxCell id="o3U4WGUKVo9Jb-Oqj6_o-72" value="" style="endArrow=none;html=1;rounded=0;entryX=0;entryY=0;entryDx=0;entryDy=0;exitX=0.5;exitY=0.5;exitDx=0;exitDy=0;exitPerimeter=0;" parent="1" target="o3U4WGUKVo9Jb-Oqj6_o-24" edge="1">
          <mxGeometry width="50" height="50" relative="1" as="geometry">
            <mxPoint x="105" y="300" as="sourcePoint" />
            <mxPoint x="367" y="594" as="targetPoint" />
          </mxGeometry>
        </mxCell>
        <mxCell id="zqqWSp069U1Nk2rd0JvT-2" value="" style="endArrow=none;html=1;rounded=0;exitX=1;exitY=0.5;exitDx=0;exitDy=0;entryX=0.5;entryY=0.5;entryDx=0;entryDy=0;entryPerimeter=0;" edge="1" parent="1" source="zqqWSp069U1Nk2rd0JvT-1" target="o3U4WGUKVo9Jb-Oqj6_o-3">
          <mxGeometry width="50" height="50" relative="1" as="geometry">
            <mxPoint x="626" y="305" as="sourcePoint" />
            <mxPoint x="740" y="160" as="targetPoint" />
          </mxGeometry>
        </mxCell>
      </root>
    </mxGraphModel>
  </diagram>
</mxfile>
